<?xml version="1.0" encoding="UTF-8" standalone="no"?>
<!DOCTYPE svg PUBLIC "-//W3C//DTD SVG 1.1//EN" "http://www.w3.org/Graphics/SVG/1.1/DTD/svg11.dtd">
<svg width="100%" height="100%" viewBox="0 0 67 67" version="1.1" xmlns="http://www.w3.org/2000/svg" xmlns:xlink="http://www.w3.org/1999/xlink" xml:space="preserve" xmlns:serif="http://www.serif.com/" style="fill-rule:evenodd;clip-rule:evenodd;stroke-linejoin:round;stroke-miterlimit:2;">
    <g transform="matrix(1,0,0,1,-7103.99,-9049.94)">
        <g transform="matrix(1.15967,0,0,1.1607,-1153.37,-1446.41)">
            <g transform="matrix(0.310467,0,0,0.310467,7083.18,9026.38)">
                <path d="M212.007,54C161.278,54 120.007,95.271 120.007,146C120.007,172.317 131.117,196.085 148.889,212.869C149.222,213.225 149.576,213.562 149.963,213.869C166.334,228.848 188.121,237.999 212.006,237.999C235.891,237.999 257.678,228.847 274.049,213.869C274.436,213.562 274.79,213.224 275.123,212.869C292.897,196.085 304.007,172.317 304.007,146C304.007,95.271 262.736,54 212.007,54ZM212.007,218C195.678,218 180.608,212.528 168.516,203.332C177.305,187.747 193.706,178 212.007,178C230.308,178 246.709,187.747 255.498,203.332C243.405,212.528 228.336,218 212.007,218ZM196.007,142L196.007,135.5C196.007,126.678 203.185,119.5 212.007,119.5C220.829,119.5 228.007,126.678 228.007,135.5L228.007,142C228.007,150.822 220.829,158 212.007,158C203.185,158 196.007,150.822 196.007,142ZM269.947,188.683C262.572,177.745 252.351,169.238 240.484,163.986C245.194,157.899 248.007,150.274 248.007,142L248.007,135.5C248.007,115.649 231.858,99.5 212.007,99.5C192.156,99.5 176.007,115.649 176.007,135.5L176.007,142C176.007,150.274 178.82,157.899 183.53,163.986C171.663,169.238 161.442,177.745 154.067,188.683C145.238,176.73 140.007,161.967 140.007,146C140.007,106.299 172.306,74 212.007,74C251.708,74 284.007,106.299 284.007,146C284.007,161.967 278.776,176.73 269.947,188.683Z" style="fill:rgb(255,108,99);fill-rule:nonzero;"/>
            </g>
        </g>
    </g>
</svg>
