<?xml version="1.0" encoding="UTF-8" standalone="no"?>
<!DOCTYPE svg PUBLIC "-//W3C//DTD SVG 1.1//EN" "http://www.w3.org/Graphics/SVG/1.1/DTD/svg11.dtd">
<svg width="100%" height="100%" viewBox="0 0 82 82" version="1.1" xmlns="http://www.w3.org/2000/svg" xmlns:xlink="http://www.w3.org/1999/xlink" xml:space="preserve" xmlns:serif="http://www.serif.com/" style="fill-rule:evenodd;clip-rule:evenodd;stroke-linejoin:round;stroke-miterlimit:2;">
    <g transform="matrix(1,0,0,1,-6620.32,-9049.94)">
        <g transform="matrix(1.15967,0,0,1.1607,-970.728,-1446.41)">
            <g transform="matrix(0.231422,0,0,0.231422,6540.31,9000.56)">
                <path d="M294.296,355.376C292.992,363.36 290.92,371.072 288.128,378.448L313.176,401.144C309.664,408.536 305.664,415.64 301.048,422.312L268.888,411.944C263.816,418.144 258.136,423.816 251.936,428.888L262.304,461.048C255.632,465.664 248.528,469.656 241.136,473.176L218.44,448.128C211.064,450.92 203.36,452.992 195.368,454.296L188.224,487.384C184.184,487.704 180.128,488 176,488C171.872,488 167.816,487.704 163.768,487.384L156.624,454.296C148.64,452.992 140.928,450.92 133.552,448.128L110.856,473.176C103.464,469.664 96.36,465.664 89.688,461.048L100.056,428.888C93.856,423.816 88.184,418.136 83.112,411.944L50.952,422.312C46.336,415.64 42.344,408.536 38.824,401.144L63.872,378.448C61.08,371.072 59.008,363.368 57.704,355.376L24.616,348.232C24.296,344.184 24,340.128 24,336C24,331.872 24.296,327.816 24.616,323.768L57.704,316.624C59.008,308.64 61.08,300.928 63.872,293.552L38.824,270.856C42.336,263.464 46.336,256.36 50.952,249.688L83.112,260.056C88.184,253.856 93.864,248.184 100.064,243.112L89.696,210.952C96.368,206.336 103.472,202.344 110.864,198.824L133.56,223.872C140.936,221.08 148.64,219.008 156.632,217.704L163.776,184.616C167.816,184.296 171.872,184 176,184C180.128,184 184.184,184.296 188.232,184.616L195.376,217.704C203.36,219.008 211.072,221.08 218.448,223.872L241.144,198.824C248.536,202.336 255.64,206.336 262.312,210.952L251.944,243.112C258.144,248.184 263.816,253.864 268.888,260.064L301.048,249.696C305.664,256.368 309.656,263.472 313.176,270.864L288.128,293.56C290.92,300.936 292.992,308.64 294.296,316.632L327.384,323.776C327.704,327.816 328,331.872 328,336C328,340.128 327.704,344.184 327.384,348.232L294.296,355.376ZM176,256C131.816,256 96,291.816 96,336C96,380.184 131.816,416 176,416C220.184,416 256,380.184 256,336C256,291.816 220.184,256 176,256Z" style="fill:rgb(82,82,82);fill-rule:nonzero;"/>
            </g>
        </g>
    </g>
</svg>
