<?xml version="1.0" encoding="UTF-8" standalone="no"?>
<!DOCTYPE svg PUBLIC "-//W3C//DTD SVG 1.1//EN" "http://www.w3.org/Graphics/SVG/1.1/DTD/svg11.dtd">
<svg width="100%" height="100%" viewBox="0 0 90 97" version="1.1" xmlns="http://www.w3.org/2000/svg" xmlns:xlink="http://www.w3.org/1999/xlink" xml:space="preserve" xmlns:serif="http://www.serif.com/" style="fill-rule:evenodd;clip-rule:evenodd;stroke-linejoin:round;stroke-miterlimit:2;">
    <g transform="matrix(1,0,0,1,-6181.69,-9042.73)">
        <g transform="matrix(1.15967,0,0,1.1607,-1051.97,-1446.41)">
            <g transform="matrix(0.161644,0,0,0.161644,6235.04,9036.94)">
                <path d="M293.035,53.011C289.78,50.45 285.068,51.017 282.511,54.271L261.15,81.438L250.168,68.899C247.44,65.786 242.707,65.474 239.592,68.2C236.478,70.927 236.164,75.663 238.892,78.776L252.785,94.637C254.976,97.139 258.066,98.558 261.3,98.558C261.399,98.558 261.497,98.556 261.595,98.554C264.947,98.464 268.093,96.858 270.224,94.148L294.294,63.535C296.852,60.281 296.289,55.569 293.035,53.011Z" style="fill:rgb(82,82,82);fill-rule:nonzero;"/>
                <path d="M448.959,51.408L321.074,51.408C316.933,51.408 313.579,54.762 313.579,58.902C313.579,63.043 316.933,66.397 321.074,66.397L448.959,66.397C453.1,66.397 456.454,63.043 456.454,58.902C456.454,54.762 453.1,51.408 448.959,51.408Z" style="fill:rgb(82,82,82);fill-rule:nonzero;"/>
                <path d="M448.959,83.567L321.074,83.567C316.933,83.567 313.579,86.922 313.579,91.062C313.579,95.202 316.933,98.557 321.074,98.557L448.959,98.557C453.1,98.557 456.454,95.202 456.454,91.062C456.454,86.922 453.1,83.567 448.959,83.567Z" style="fill:rgb(82,82,82);fill-rule:nonzero;"/>
                <path d="M293.035,143.477C289.78,140.916 285.068,141.482 282.511,144.736L261.15,171.904L250.168,159.366C247.44,156.252 242.707,155.939 239.592,158.667C236.478,161.394 236.164,166.129 238.892,169.242L252.785,185.103C254.976,187.606 258.066,189.025 261.3,189.025C261.399,189.025 261.497,189.023 261.595,189.021C264.947,188.931 268.093,187.325 270.224,184.615L294.294,154.002C296.852,150.748 296.289,146.035 293.035,143.477Z" style="fill:rgb(82,82,82);fill-rule:nonzero;"/>
                <path d="M448.959,141.874L321.074,141.874C316.933,141.874 313.579,145.229 313.579,149.369C313.579,153.509 316.933,156.864 321.074,156.864L448.959,156.864C453.1,156.864 456.454,153.509 456.454,149.369C456.454,145.229 453.1,141.874 448.959,141.874Z" style="fill:rgb(82,82,82);fill-rule:nonzero;"/>
                <path d="M448.959,174.033L321.074,174.033C316.933,174.033 313.579,177.388 313.579,181.528C313.579,185.668 316.933,189.023 321.074,189.023L448.959,189.023C453.1,189.023 456.454,185.668 456.454,181.528C456.454,177.388 453.1,174.033 448.959,174.033Z" style="fill:rgb(82,82,82);fill-rule:nonzero;"/>
                <path d="M293.035,233.943C289.78,231.381 285.068,231.947 282.511,235.202L261.15,262.369L250.168,249.832C247.44,246.717 242.705,246.404 239.592,249.132C236.478,251.859 236.164,256.595 238.892,259.708L252.784,275.567C254.974,278.07 258.065,279.489 261.3,279.489C261.398,279.489 261.495,279.488 261.592,279.485C264.944,279.397 268.091,277.792 270.224,275.08L294.294,244.467C296.852,241.214 296.289,236.501 293.035,233.943Z" style="fill:rgb(82,82,82);fill-rule:nonzero;"/>
                <path d="M448.959,232.34L321.074,232.34C316.933,232.34 313.579,235.694 313.579,239.835C313.579,243.975 316.933,247.329 321.074,247.329L448.959,247.329C453.1,247.329 456.454,243.975 456.454,239.835C456.454,235.694 453.1,232.34 448.959,232.34Z" style="fill:rgb(82,82,82);fill-rule:nonzero;"/>
                <path d="M448.959,264.5L321.074,264.5C316.933,264.5 313.579,267.854 313.579,271.994C313.579,276.135 316.933,279.489 321.074,279.489L448.959,279.489C453.1,279.489 456.454,276.135 456.454,271.994C456.454,267.854 453.1,264.5 448.959,264.5Z" style="fill:rgb(82,82,82);fill-rule:nonzero;"/>
                <path d="M293.035,324.409C289.78,321.848 285.068,322.414 282.511,325.668L261.15,352.836L250.168,340.298C247.44,337.184 242.705,336.871 239.592,339.599C236.478,342.326 236.164,347.062 238.892,350.175L252.784,366.034C254.974,368.537 258.065,369.956 261.3,369.956C261.398,369.956 261.495,369.955 261.592,369.952C264.944,369.864 268.091,368.259 270.224,365.547L294.294,334.934C296.852,331.679 296.289,326.967 293.035,324.409Z" style="fill:rgb(82,82,82);fill-rule:nonzero;"/>
                <path d="M448.959,322.805L321.074,322.805C316.933,322.805 313.579,326.16 313.579,330.3C313.579,334.44 316.933,337.795 321.074,337.795L448.959,337.795C453.1,337.795 456.454,334.44 456.454,330.3C456.454,326.16 453.1,322.805 448.959,322.805Z" style="fill:rgb(82,82,82);fill-rule:nonzero;"/>
                <path d="M456.454,362.46C456.454,358.32 453.1,354.965 448.959,354.965L321.074,354.965C316.933,354.965 313.579,358.32 313.579,362.46C313.579,366.6 316.933,369.955 321.074,369.955L448.959,369.955C453.1,369.955 456.454,366.6 456.454,362.46Z" style="fill:rgb(82,82,82);fill-rule:nonzero;"/>
                <path d="M293.035,414.875C289.78,412.314 285.068,412.879 282.511,416.134L261.15,443.301L250.168,430.764C247.44,427.649 242.705,427.335 239.592,430.064C236.478,432.792 236.164,437.527 238.892,440.64L252.784,456.499C254.974,459.003 258.065,460.422 261.3,460.422C261.398,460.422 261.495,460.421 261.592,460.418C264.944,460.33 268.091,458.725 270.224,456.013L294.294,425.4C296.852,422.146 296.289,417.433 293.035,414.875Z" style="fill:rgb(82,82,82);fill-rule:nonzero;"/>
                <path d="M372.083,413.272L321.074,413.272C316.933,413.272 313.579,416.627 313.579,420.767C313.579,424.907 316.933,428.262 321.074,428.262L372.083,428.262C376.224,428.262 379.578,424.907 379.578,420.767C379.578,416.627 376.224,413.272 372.083,413.272Z" style="fill:rgb(82,82,82);fill-rule:nonzero;"/>
                <path d="M372.083,445.431L321.074,445.431C316.933,445.431 313.579,448.786 313.579,452.926C313.579,457.066 316.933,460.421 321.074,460.421L372.083,460.421C376.224,460.421 379.578,457.066 379.578,452.926C379.578,448.786 376.224,445.431 372.083,445.431Z" style="fill:rgb(82,82,82);fill-rule:nonzero;"/>
                <path d="M478.179,0L432.878,0C428.737,0 425.383,3.355 425.383,7.495C425.383,11.635 428.737,14.99 432.878,14.99L478.179,14.99C479.557,14.99 480.678,16.11 480.678,17.488L480.678,426.297L431.725,426.297C418.256,426.297 407.296,437.256 407.296,450.725L407.296,496.839L166.838,496.839C170.066,491.8 171.947,485.818 171.947,479.402L171.947,353.594C175.864,355.622 180.317,356.775 185.041,356.775C200.353,356.775 212.81,344.318 212.81,329.005L212.81,256.497C212.81,234.946 205.961,214.489 193.003,197.337C180.473,180.75 162.66,168.342 142.847,162.397C141.962,162.131 141.345,161.272 141.345,160.306L141.345,154.541C166.099,143.652 183.436,118.905 183.436,90.172C183.436,60.906 165.454,35.77 139.963,25.208L139.963,17.488C139.963,16.11 141.083,14.99 142.461,14.99L398.152,14.99C402.293,14.99 405.647,11.635 405.647,7.495C405.647,3.355 402.293,0 398.152,0L142.46,0C132.817,0 124.972,7.846 124.972,17.488L124.972,20.895C121.122,20.239 117.173,19.879 113.14,19.879C74.38,19.879 42.845,51.414 42.845,90.174C42.845,120.001 61.528,145.532 87.797,155.724L87.797,160.307C87.797,161.273 87.18,162.132 86.296,162.398C75.849,165.534 66.048,170.37 57.169,176.772C53.811,179.193 53.051,183.877 55.472,187.236C57.893,190.594 62.577,191.351 65.936,188.932C73.459,183.506 81.76,179.41 90.604,176.755C97.779,174.605 102.788,167.84 102.788,160.307L102.788,159.7C106.168,160.201 109.623,160.468 113.14,160.468C117.658,160.468 122.071,160.024 126.354,159.205L126.354,160.307C126.354,167.84 131.365,174.605 138.538,176.755C155.322,181.792 170.417,192.31 181.041,206.374C192.018,220.903 197.82,238.235 197.82,256.498L197.82,329.006C197.82,336.053 192.088,341.786 185.04,341.786C178.469,341.786 172.846,336.87 171.946,330.718L171.946,247.05C171.946,242.91 168.592,239.555 164.452,239.555C160.311,239.555 156.957,242.91 156.957,247.05L156.957,479.402C156.957,489.017 149.134,496.839 139.52,496.839C129.905,496.839 122.083,489.017 122.083,479.402L122.083,344.186C122.083,340.047 118.728,336.692 114.589,336.691L114.588,336.691C110.45,336.691 107.094,340.045 107.093,344.184L107.059,479.402C107.059,489.017 99.237,496.839 89.622,496.839C80.008,496.839 72.185,489.017 72.185,479.402L72.185,245.774C72.185,241.633 68.831,238.279 64.69,238.279C60.55,238.279 57.196,241.633 57.196,245.774L57.137,328.337C57.137,335.501 51.045,341.785 44.102,341.785C37.054,341.785 31.321,336.052 31.321,329.005L31.321,256.497C31.321,240.835 35.692,225.579 43.962,212.379C46.158,208.87 45.097,204.245 41.588,202.048C38.08,199.854 33.455,200.912 31.257,204.421C21.493,220.01 16.331,238.018 16.331,256.497L16.331,329.005C16.331,344.318 28.788,356.775 44.101,356.775C48.793,356.775 53.26,355.529 57.195,353.356L57.195,479.401C57.195,497.282 71.742,511.828 89.621,511.828C99.642,511.828 108.618,507.258 114.571,500.093C120.524,507.258 129.498,511.828 139.52,511.828L404.442,511.828C410.088,511.828 415.855,512.992 420.503,509.245C422.686,507.485 424.641,505.322 426.674,503.395C435.215,495.298 479.648,453.168 493.329,440.203C494.822,438.787 495.667,436.821 495.667,434.764L495.667,17.488C495.667,7.846 487.823,0 478.179,0ZM113.14,145.479C82.645,145.479 57.835,120.669 57.835,90.173C57.835,59.678 82.645,34.868 113.14,34.868C143.635,34.868 168.445,59.678 168.445,90.173C168.445,120.669 143.635,145.479 113.14,145.479ZM422.286,486.732L422.286,450.725C422.286,445.521 426.52,441.287 431.725,441.287L469.561,441.287L422.286,486.732Z" style="fill:rgb(82,82,82);fill-rule:nonzero;"/>
                <path d="M125.935,118.57C122.639,116.065 117.939,116.707 115.432,120.001C115.277,120.207 114.925,120.552 114.326,120.552C113.726,120.552 113.373,120.203 113.216,119.995C110.723,116.691 106.024,116.035 102.719,118.527C99.414,121.021 98.758,125.72 101.251,129.024C104.33,133.105 109.219,135.541 114.326,135.541C119.488,135.541 124.24,133.183 127.366,129.072C129.87,125.778 129.231,121.076 125.935,118.57Z" style="fill:rgb(82,82,82);fill-rule:nonzero;"/>
            </g>
        </g>
    </g>
</svg>
